<?xml version="1.0" encoding="UTF-8"?>
<svg id="katman_2" xmlns="http://www.w3.org/2000/svg" viewBox="0 0 175.75 76.41">
  <defs>
    <style>
      .cls-1 {
        fill: #fff;
      }
    </style>
  </defs>
  <g id="logo">
    <g>
      <path class="cls-1" d="M32.96,0H0v76.41h71.16V0h-38.2ZM67.32,72.57H3.84V3.84h63.48v68.73Z"/>
      <polygon class="cls-1" points="10.06 31.67 11.47 32.34 11.61 32.41 11.88 31.73 11.47 31.53 10.87 31.26 10.6 30.45 11.47 30.39 12.55 30.25 13.02 29.38 11.47 29.58 10.33 29.78 10.06 29.04 9.59 27.89 9.18 28.77 10.06 30.86 8.91 30.32 8.58 30.19 8.24 30.86 8.91 31.13 10.06 31.67"/>
      <polygon class="cls-1" points="9.99 40.29 10.06 39.96 10.13 39.62 10.06 39.62 8.91 39.48 7.23 39.21 8.91 39.01 10.06 38.88 10.19 38.88 10.33 38.2 10.06 38.07 8.91 37.6 7.5 37.06 8.91 37.26 10.06 37.4 10.4 37.46 10.46 36.79 10.06 36.72 8.91 36.52 6.82 36.25 6.69 37.33 8.91 38.27 9.12 38.34 8.91 38.41 6.49 38.67 6.35 39.82 8.91 40.16 9.99 40.29"/>
      <path class="cls-1" d="M10.06,36.05l.4.34.2-.74-.61-.47-.07-.07.07-.27.34-1.15.88-.07.2-.74v-.07l-1.41.13-1.15.13-1.35.13-.27.74,1.62,1.21,1.15.87ZM8.91,33.76h.81l-.27.94-.54-.4-.67-.47.67-.07Z"/>
      <polygon class="cls-1" points="13.9 27.76 14.3 27.15 12.35 25.74 14.84 25.94 15.18 26.01 15.58 25.4 14.84 24.86 12.62 23.18 12.22 23.78 14.17 25.2 11.47 25 11.27 25 10.87 25.54 11.47 26.01 13.9 27.76"/>
      <polygon class="cls-1" points="10.06 26.61 10.13 26.48 10.06 26.41 9.52 26.14 9.18 26.75 9.79 27.09 10.06 26.61"/>
      <polygon class="cls-1" points="9.92 27.22 10.06 27.22 11.47 28.1 13.16 29.04 13.56 28.37 11.47 27.22 10.33 26.55 10.06 27.02 9.92 27.22"/>
      <polygon class="cls-1" points="26.2 10.49 26.92 10.49 26.92 7.6 27.91 7.6 27.91 7.01 25.15 7.01 25.15 7.6 26.2 7.6 26.2 10.49"/>
      <polygon class="cls-1" points="29.75 7.73 30.41 10.49 31.13 10.49 31.79 7.73 31.79 10.49 32.44 10.49 32.44 7.01 31.39 7.01 30.8 9.37 30.14 7.01 29.09 7.01 29.09 10.49 29.75 10.49 29.75 7.73"/>
      <g>
        <path class="cls-1" d="M44.53,10.49h.66c.13,0,.33-.07.46-.2.13-.07.2-.2.26-.33.13-.13.13-.33.13-.46,0-.2-.06-.39-.13-.53-.13-.13-.33-.26-.52-.33.13-.07.26-.2.39-.33.07-.13.13-.26.13-.46,0-.13-.07-.26-.13-.39-.07-.13-.2-.2-.26-.26-.13-.07-.26-.13-.39-.2h-2.04v3.48h1.44ZM43.8,7.6h1.05c.07,0,.2.07.26.13s.07.13.07.26,0,.2-.13.26c-.07.07-.13.13-.26.13h-.99v-.79ZM43.8,8.98h.72c.26,0,.39,0,.46.07.13,0,.2.07.26.13.07.07.07.2.07.26,0,.13,0,.26-.13.33-.07.07-.13.13-.2.13h-1.18v-.92Z"/>
        <path class="cls-1" d="M40.19,10.55c.53,0,.92-.13,1.25-.46.26-.33.46-.79.46-1.31,0-.59-.2-1.05-.53-1.38-.26-.33-.72-.46-1.18-.46-.33,0-.59.07-.79.13-.13.07-.33.2-.46.33-.13.13-.26.33-.33.46-.07.26-.13.59-.13.92,0,.53.13.99.46,1.31.26.33.72.46,1.25.46M39.47,7.86c.2-.2.39-.33.72-.33.26,0,.53.13.66.33.2.2.26.46.26.85,0,.46-.07.72-.26.92-.13.2-.39.33-.66.33-.33,0-.52-.13-.72-.33-.2-.2-.26-.46-.26-.85,0-.46.07-.72.26-.92"/>
        <polygon class="cls-1" points="33.82 7.01 33.82 10.49 34.48 10.49 34.48 7.73 35.2 10.49 35.86 10.49 36.58 7.73 36.58 10.49 37.24 10.49 37.24 7.01 36.19 7.01 35.53 9.37 34.87 7.01 33.82 7.01"/>
        <path class="cls-1" d="M35.53,47.99c-1.84-.07-2.43-1.58-4.4-1.9h-.59c-2.69,0-4.93,1.97-4.93,4.47s2.23,4.46,4.93,4.46c.2,0,.39,0,.59-.07,1.97-.26,2.56-1.84,4.4-1.84s2.5,1.58,4.47,1.84c.2.07.39.07.59.07,2.69,0,4.86-2.04,4.86-4.46s-2.17-4.47-4.86-4.47c-.2,0-.39,0-.59.06-1.97.26-2.63,1.77-4.47,1.84M31.13,53.05c-.46.13-.85.2-1.18.2-1.58,0-2.76-1.05-2.82-2.69.06-1.64,1.25-2.69,2.82-2.69.33,0,.72.07,1.18.2,1.64.46,3.87,1.77,3.94,2.5-.07.72-2.3,2.03-3.94,2.49M41.11,47.86c1.58,0,2.82,1.05,2.82,2.69s-1.25,2.69-2.82,2.69c-.33,0-.72-.07-1.12-.2-1.71-.46-3.87-1.77-4.01-2.49.13-.72,2.3-2.04,4.01-2.5.39-.13.79-.2,1.12-.2"/>
        <path class="cls-1" d="M14.45,40.96c0,11.63,9.46,21.08,21.08,21.08s21.08-9.46,21.08-21.08-9.46-21.15-21.08-21.15-21.08,9.52-21.08,21.15M52.93,40.96c0,9.52-7.82,17.34-17.4,17.34s-17.34-7.82-17.34-17.34,7.81-17.4,17.34-17.4,17.4,7.82,17.4,17.4"/>
        <path class="cls-1" d="M35.53,65.79c-13.59,0-24.63-11.03-24.83-24.56h-3.68v28.24h3.68v-14.45c4.93,8.6,14.25,14.45,24.83,14.45s19.9-5.85,24.83-14.45v14.45h3.74v-28.24h-3.74c-.13,13.53-11.23,24.56-24.83,24.56"/>
        <polygon class="cls-1" points="41.64 13.31 40.85 16.79 41.57 16.99 42.36 13.44 41.64 13.31"/>
        <polygon class="cls-1" points="33.56 12.66 33.62 16.27 34.28 16.27 34.28 13.9 35.73 16.2 36.45 16.2 36.38 12.59 35.73 12.59 35.79 15.02 34.28 12.66 33.56 12.66"/>
        <path class="cls-1" d="M22.79,17.91c.13.33.33.59.46.72.07.07.13.13.2.2q.07.06.13.06c.2.07.33.13.53.13s.46-.13.79-.26c.26-.13.46-.26.53-.39.13-.2.26-.33.26-.46v-.07c.06-.13.06-.26,0-.39v-.07c-.07-.2-.2-.46-.4-.85l-.85-1.64-.66.33.92,1.77c.13.26.26.39.26.52.07.13.07.26,0,.39-.07.13-.2.2-.39.33-.2.07-.33.13-.46.07-.13,0-.26-.07-.39-.2-.07-.07-.13-.26-.26-.52l-.92-1.77-.13.13-.53.2.53.98.39.79Z"/>
        <polygon class="cls-1" points="20.03 21.72 20.55 21.33 18.91 19.02 21.15 20.93 21.74 20.54 20.69 17.78 22.33 20.08 22.39 20.08 22.85 19.68 22.39 19.02 20.82 16.73 19.9 17.38 20.75 19.75 18.85 18.11 18.39 18.43 17.93 18.76 18.39 19.35 20.03 21.72"/>
        <polygon class="cls-1" points="22.39 15.68 22.85 15.41 22.59 14.89 22.39 15.02 22.07 15.15 22.33 15.68 22.39 15.68"/>
        <polygon class="cls-1" points="23.44 15.15 23.84 14.95 23.58 14.43 23.44 14.49 23.05 14.69 23.31 15.22 23.44 15.15"/>
        <polygon class="cls-1" points="30.47 13.71 32.38 13.38 32.31 12.79 29.68 13.25 30.27 16.79 32.97 16.33 32.9 15.74 30.93 16.07 30.73 15.09 32.51 14.82 32.44 14.23 30.6 14.49 30.47 13.71"/>
        <polygon class="cls-1" points="28.17 15.09 26.79 15.48 26.4 14.17 25.68 14.36 25.68 14.43 26.79 17.84 27.52 17.58 26.99 16.07 28.37 15.68 28.83 17.12 29.55 16.92 28.44 13.51 27.71 13.71 28.17 15.09"/>
        <path class="cls-1" d="M56.48,25.27c-.26.26-.46.52-.53.85-.06.46,0,.92.33,1.38.07.13.13.2.2.33.26.2.53.39.85.46h.46c.33,0,.66-.13.98-.33.46-.33.79-.72.86-1.18l.07-.07v-.59c-.07-.2-.2-.46-.33-.66-.13-.26-.33-.46-.53-.59-.13-.13-.33-.2-.53-.2-.2-.06-.33-.06-.53-.06h-.07c-.26.06-.59.2-.85.39-.13.07-.26.2-.39.26M57.27,25.59c.2-.13.39-.2.52-.2.2-.07.26-.07.39-.07.26.07.53.2.66.46.2.26.2.53.13.79-.06.26-.26.46-.59.72-.2.13-.39.2-.59.26h-.39c-.26-.07-.46-.2-.59-.39-.2-.26-.26-.53-.13-.79.07-.26.26-.53.59-.79"/>
        <polygon class="cls-1" points="53.59 23.95 54.12 24.48 54.31 24.28 56.48 22.18 56.68 21.98 56.48 21.78 56.15 21.46 54.31 23.23 53.59 23.95"/>
        <path class="cls-1" d="M50.9,21.52l.53.46.2-.13.79-.98.13.07.26.26c0,.07.07.2.07.26,0,.13,0,.33-.07.66l-.07.98.66.53.07-.79c.07-.33.07-.59.07-.72,0-.2,0-.33-.07-.53,0,.07.07.07.13.07.2.13.39.2.59.13h.13c.2-.07.4-.13.53-.33.13-.2.2-.33.2-.53.07-.2,0-.39-.07-.53-.07-.2-.26-.39-.59-.66h-.07l-.72-.66-.39-.33-1.58,1.97-.72.79ZM53.39,19.75l.2.13.2.2c.26.2.39.33.39.33.07.13.13.2.13.26v.13c0,.07-.07.13-.07.2-.13.07-.2.13-.26.2-.07,0-.2,0-.26-.07,0,0-.07,0-.13-.07-.13-.07-.26-.2-.39-.33l-.4-.33.59-.66Z"/>
        <polygon class="cls-1" points="56.81 21.85 57.27 21.39 56.81 20.86 56.48 21.19 56.35 21.33 56.48 21.52 56.81 21.85"/>
        <polygon class="cls-1" points="50.77 20.6 49.06 19.49 49.58 18.7 51.1 19.62 51.42 19.09 49.91 18.17 50.31 17.45 51.62 18.3 51.95 18.5 52.28 17.97 51.62 17.58 50.04 16.6 48.14 19.62 50.44 21.06 50.77 20.6"/>
        <polygon class="cls-1" points="45.45 18.24 45.51 18.24 47.68 19.35 47.94 18.83 46.37 17.97 47.68 15.35 47.02 15.02 45.51 18.04 45.45 18.24"/>
        <polygon class="cls-1" points="42.36 13.25 42.43 13.25 42.56 12.59 42.36 12.59 41.9 12.46 41.77 13.12 42.36 13.25"/>
        <path class="cls-1" d="M38.88,16.46h.4c.2-.06.39-.13.53-.26.2-.13.33-.33.46-.59.07-.2.13-.46.2-.72.07-.33.07-.66,0-.85-.07-.26-.13-.46-.26-.66-.13-.13-.33-.26-.52-.39-.13-.07-.39-.13-.66-.13h-.13l-1.18-.2-.46,3.61,1.38.13c.06.06.2.06.26.06M38.02,15.74l.33-2.36.33.07h.2c.2,0,.26.07.4.07.13.07.2.13.26.2.07.13.13.26.2.39v.66c-.06.26-.13.46-.2.66-.06.13-.13.26-.2.33-.07.07-.2.07-.33.07h-.46l-.53-.07Z"/>
        <path class="cls-1" d="M43.74,16c.26.13.46.26.53.33.07.07.13.13.2.2v.26c-.06.07-.13.2-.26.26-.13.07-.33.07-.59-.06-.2-.07-.33-.13-.39-.26-.13-.2-.13-.4-.13-.59l-.66-.2c-.07.13-.07.2-.07.26v.26c0,.2.07.33.2.53.13.26.46.46.85.59.33.13.59.13.79.13.26,0,.46-.06.59-.2.2-.2.33-.33.39-.52.07-.2.07-.4,0-.59,0-.2-.13-.33-.26-.46-.13-.13-.33-.33-.66-.53-.33-.2-.53-.33-.59-.39,0-.13-.07-.2,0-.26,0-.07.07-.13.2-.2.13,0,.26,0,.46.07.2.06.33.13.46.26.07.07.07.26.07.39l.66.2c.07-.26.07-.46,0-.72,0,0-.06-.07-.06-.13-.2-.26-.46-.46-.92-.59-.26-.07-.46-.13-.72-.07-.2,0-.33.07-.53.2-.13.13-.26.26-.26.39-.13.33-.07.59.07.85.13.13.33.33.66.59"/>
        <path class="cls-1" d="M16.15,25.13l.13.2.53-.53-.39-.79.98-1.05.85.33.13-.13.39-.46-.39-.13-2.23-.92-.79-.33-.2-.07-.53.59.72,1.51.79,1.77ZM16.15,22.44l.66.26-.66.66v.07l-.66-1.31.66.33Z"/>
        <path class="cls-1" d="M57.79,29.27l-.26.13.26.59.33.66c.13.26.2.39.33.53.2.2.33.26.46.33.26.13.46.13.79.13.2-.07.46-.13.72-.26.33-.13.53-.26.72-.46.07-.07.13-.13.2-.2.07-.13.13-.26.2-.33.07-.2.07-.46.07-.66s-.13-.39-.2-.66l-.07-.07-.53-1.12-1.12.53-1.9.86ZM60.68,29.07c.13.26.2.46.26.59v.33c-.07.13-.13.26-.26.33-.13.13-.33.26-.53.39-.2.07-.33.13-.46.13-.06.07-.13.07-.2.07-.13,0-.33,0-.39-.07-.07,0-.2-.06-.26-.2-.07-.07-.13-.2-.2-.33l-.26-.53,1.31-.59.86-.39.13.26Z"/>
        <path class="cls-1" d="M59.7,32.49l-.79-.07.2.72h.59l.33.07.39,1.38-.72.52.2.72,1.44-1.12,1.64-1.25-.2-.72-1.44-.13-1.64-.13ZM61.34,33.87l-.46.33-.26-.98.72.07.72.07-.72.53Z"/>
        <path class="cls-1" d="M62.59,35.84c-.26,0-.46.13-.66.39-.13.2-.2.46-.26.85,0,.33,0,.52-.06.59,0,.13-.07.26-.07.33-.07,0-.13.07-.2.07h-.06c-.13,0-.2,0-.33-.13-.13-.07-.2-.26-.26-.46,0-.26,0-.46.13-.59.07-.13.26-.26.46-.33l-.13-.66c-.39.07-.72.26-.85.53-.2.26-.26.66-.2,1.12.06.26.13.53.26.72.13.2.26.33.46.46.2.06.33.13.53.06h.07c.2,0,.39-.06.53-.2.13-.13.26-.26.33-.46.07-.2.13-.46.13-.79.06-.39.13-.59.13-.72.07-.07.13-.13.26-.13.07,0,.13,0,.2.07.13.13.2.26.2.46.07.2,0,.4-.06.53-.07.07-.2.2-.33.2l.13.72c.33,0,.53-.2.72-.46.13-.26.2-.59.13-1.05,0-.26-.06-.46-.2-.66-.13-.2-.26-.33-.46-.39-.13-.07-.33-.13-.53-.07"/>
        <polygon class="cls-1" points="60.35 39.52 60.42 40.24 61.34 40.24 64.03 40.11 63.97 39.39 61.34 39.52 60.35 39.52"/>
        <polygon class="cls-1" points="34.94 43.06 35.33 43.06 35.73 43.06 35.73 41.82 35.33 42.41 34.94 43.06"/>
        <path class="cls-1" d="M35.33,25.4c-2.36.13-4.27,2.3-4.27,4.93,0,2.43,1.91,2.96,1.91,4.99s-1.91,2.56-1.91,5.06c0,2.63,1.91,4.79,4.27,4.86h.2c2.5,0,4.47-2.17,4.47-4.86,0-2.5-1.84-3.02-1.91-5.06.07-2.04,1.91-2.56,1.91-4.99,0-2.69-1.97-4.93-4.47-4.93h-.2ZM36.84,43.66h-.46v.66h-.66v-.66h-1.44v-.59l1.05-1.58.46-.66h.59v2.23h.46v.59ZM36.51,39.12c-.2.26-.53.46-.92.46-.07,0-.2,0-.26-.07-.2,0-.39-.07-.53-.2-.26-.2-.33-.26-.39-.53l.66-.26c.07.13.07.26.2.33,0,.07.07.07.07.13h.26c.13,0,.26,0,.33-.13.13-.13.13-.33.13-.53s0-.39-.13-.46c-.07-.13-.2-.2-.39-.2-.07,0-.13,0-.2.07-.07,0-.2.07-.26.2l-.59-.07.33-1.84h1.84v.66h-1.31l-.07.59c0-.06.07-.06.07-.06.13-.07.26-.07.39-.07.26,0,.53.13.72.33.2.2.33.53.33.85,0,.26-.07.53-.26.79M36.71,32.95c0,.59-.13,1.05-.39,1.38-.2.26-.53.39-.92.39h-.06c-.2,0-.46-.07-.59-.2-.2-.13-.26-.26-.33-.59l.66-.13c0,.13.07.2.13.26q.06.07.13.13h.13c.13,0,.26-.07.33-.2.13-.13.2-.39.2-.79-.13.2-.4.26-.59.26h-.06c-.26,0-.46-.13-.66-.33-.2-.2-.33-.46-.33-.79,0-.39.13-.66.33-.85.2-.2.39-.33.66-.33h.13c.39,0,.66.13.92.4.2.26.33.72.33,1.38M36.12,26.32v3.55h-.66v-2.56c-.07,0-.07.07-.13.07-.2.2-.46.33-.72.46v-.59c.13-.07.33-.2.53-.33.07-.07.13-.13.2-.2.13-.13.2-.26.26-.39h.53Z"/>
        <path class="cls-1" d="M35.33,31.7c-.07,0-.13.07-.2.13-.07.13-.13.26-.13.53,0,.2.07.39.13.46.07.07.13.13.2.13.06.07.13.07.13.07.13,0,.26-.07.33-.2.13-.07.13-.13.13-.33s0-.46-.13-.59c-.13-.13-.2-.2-.33-.2h-.13Z"/>
        <path class="cls-1" d="M79.67,5.34h-1.89c-.14,0-.23-.11-.23-.23v-1.01c0-.12.1-.23.23-.23h5.39c.14,0,.23.11.23.23v1.01c0,.12-.1.23-.23.23h-1.89v6.91c0,.12-.11.23-.23.23h-1.15c-.12,0-.23-.11-.23-.23v-6.91Z"/>
        <path class="cls-1" d="M85.43,3.92c.01-.1.09-.18.22-.18h.2c.1,0,.17.05.21.12l2.71,5.82h.04l2.71-5.82c.04-.07.1-.12.21-.12h.2c.14,0,.21.09.22.18l1.45,8.28c.04.17-.06.28-.22.28h-1.12c-.11,0-.21-.1-.23-.18l-.73-4.67h-.04l-2.16,4.84c-.02.07-.1.14-.21.14h-.22c-.11,0-.17-.06-.21-.14l-2.18-4.84h-.04l-.71,4.67c-.01.09-.11.18-.22.18h-1.11c-.16,0-.26-.11-.23-.28l1.47-8.28Z"/>
        <path class="cls-1" d="M96.19,3.92c.01-.1.09-.18.22-.18h.2c.1,0,.17.05.21.12l2.71,5.82h.04l2.71-5.82c.04-.07.1-.12.21-.12h.2c.14,0,.21.09.22.18l1.45,8.28c.04.17-.06.28-.22.28h-1.12c-.11,0-.21-.1-.23-.18l-.73-4.67h-.04l-2.16,4.84c-.02.07-.1.14-.21.14h-.22c-.11,0-.17-.06-.21-.14l-2.18-4.84h-.04l-.71,4.67c-.01.09-.11.18-.22.18h-1.11c-.16,0-.26-.11-.23-.28l1.47-8.28Z"/>
        <path class="cls-1" d="M109.86,3.73c2.46,0,4.44,1.98,4.44,4.45s-1.97,4.42-4.44,4.42-4.42-1.96-4.42-4.42,1.96-4.45,4.42-4.45M109.86,11c1.55,0,2.83-1.27,2.83-2.82s-1.28-2.85-2.83-2.85-2.82,1.29-2.82,2.85,1.27,2.82,2.82,2.82"/>
        <path class="cls-1" d="M115.91,4.09c0-.12.1-.23.23-.23h2.82c1.47,0,2.6.99,2.6,2.28,0,.95-.78,1.69-1.36,1.96.65.21,1.6.88,1.6,2.01,0,1.38-1.18,2.38-2.69,2.38h-2.98c-.14,0-.23-.11-.23-.23V4.09ZM118.82,7.48c.63,0,1.06-.49,1.06-1.11s-.43-1.05-1.06-1.05h-1.32v2.16h1.32ZM118.99,11.03c.62,0,1.11-.48,1.11-1.12s-.62-1.07-1.26-1.07h-1.34v2.19h1.49Z"/>
        <path class="cls-1" d="M79.02,18.94c.01-.1.09-.18.22-.18h.2c.1,0,.17.05.21.12l2.71,5.82h.04l2.71-5.82c.04-.07.1-.12.21-.12h.2c.14,0,.21.09.22.18l1.45,8.28c.04.17-.06.28-.22.28h-1.12c-.11,0-.21-.1-.23-.18l-.73-4.67h-.04l-2.16,4.84c-.02.07-.1.14-.21.14h-.22c-.11,0-.17-.06-.21-.14l-2.18-4.84h-.04l-.71,4.67c-.01.09-.11.18-.22.18h-1.11c-.16,0-.26-.11-.23-.28l1.47-8.28Z"/>
        <path class="cls-1" d="M87.75,27.18l3.83-8.29c.04-.07.1-.14.21-.14h.12c.12,0,.17.06.21.14l3.8,8.29c.07.16-.02.32-.21.32h-1.07c-.18,0-.27-.07-.36-.25l-.6-1.33h-3.69l-.6,1.33c-.05.12-.16.25-.36.25h-1.07c-.18,0-.28-.16-.21-.32M93.08,24.56l-1.23-2.71h-.04l-1.21,2.71h2.48Z"/>
        <path class="cls-1" d="M97.05,19.17c0-.16.12-.3.3-.3h1.08c.16,0,.3.14.3.3v3.33l3.11-3.5c.05-.06.12-.12.23-.12h1.23c.23,0,.36.26.2.44l-3.22,3.62,3.45,4.13c.12.16.02.43-.22.43h-1.34c-.12,0-.2-.05-.22-.09l-3.22-3.97v3.76c0,.16-.14.3-.3.3h-1.08c-.17,0-.3-.14-.3-.3v-8.04Z"/>
        <path class="cls-1" d="M105.01,16.99c0-.49.39-.89.89-.89s.89.39.89.89-.39.89-.89.89-.89-.39-.89-.89M105.08,19.11c0-.12.11-.23.23-.23h1.15c.12,0,.23.11.23.23v8.16c0,.12-.11.23-.23.23h-1.15c-.12,0-.23-.11-.23-.23v-8.16Z"/>
        <path class="cls-1" d="M108.94,18.97c0-.12.11-.22.23-.22h.31l5.13,5.45h.01v-5.09c0-.12.1-.23.23-.23h1.13c.12,0,.23.11.23.23v8.29c0,.12-.11.22-.23.22h-.3l-5.15-5.66h-.01v5.3c0,.12-.1.23-.23.23h-1.12c-.12,0-.23-.11-.23-.23v-8.29Z"/>
        <path class="cls-1" d="M117.34,27.18l3.83-8.29c.04-.07.1-.14.21-.14h.12c.12,0,.17.06.21.14l3.8,8.29c.07.16-.02.32-.21.32h-1.07c-.18,0-.27-.07-.36-.25l-.6-1.33h-3.68l-.6,1.33c-.05.12-.16.25-.36.25h-1.07c-.18,0-.28-.16-.21-.32M122.67,24.56l-1.23-2.71h-.04l-1.21,2.71h2.48Z"/>
        <path class="cls-1" d="M79.02,33.96c.01-.1.09-.18.22-.18h.2c.1,0,.17.05.21.12l2.71,5.82h.04l2.71-5.82c.04-.07.1-.12.21-.12h.2c.14,0,.21.09.22.18l1.45,8.28c.04.17-.06.28-.22.28h-1.12c-.11,0-.21-.1-.23-.18l-.73-4.67h-.04l-2.16,4.84c-.02.07-.1.14-.21.14h-.22c-.11,0-.17-.06-.21-.14l-2.18-4.84h-.04l-.71,4.67c-.01.09-.11.18-.22.18h-1.11c-.16,0-.26-.11-.23-.28l1.47-8.28Z"/>
        <path class="cls-1" d="M88.76,34.13c0-.12.11-.23.23-.23h1.17c.14,0,.23.11.23.23v5.04c0,1.05.71,1.87,1.79,1.87s1.8-.83,1.8-1.86v-5.05c0-.12.1-.23.23-.23h1.17c.12,0,.23.11.23.23v5.13c0,1.87-1.49,3.39-3.44,3.39s-3.43-1.52-3.43-3.39v-5.13ZM89.89,32.18c0-.43.35-.78.78-.78s.79.35.79.78-.36.79-.79.79-.78-.36-.78-.79M92.93,32.18c0-.43.35-.78.78-.78s.79.35.79.78-.36.79-.79.79-.78-.36-.78-.79"/>
        <path class="cls-1" d="M97.76,34.13c0-.12.11-.23.23-.23h1.15c.14,0,.23.11.23.23v3.27h4.02v-3.27c0-.12.1-.23.23-.23h1.13c.12,0,.23.11.23.23v8.16c0,.12-.11.23-.23.23h-1.13c-.14,0-.23-.11-.23-.23v-3.4h-4.02v3.4c0,.12-.1.23-.23.23h-1.15c-.12,0-.23-.11-.23-.23v-8.16Z"/>
        <path class="cls-1" d="M107.24,34.13c0-.12.1-.23.23-.23h5.02c.14,0,.23.11.23.23v1.01c0,.12-.1.23-.23.23h-3.65v2.02h3.04c.12,0,.23.11.23.23v1.02c0,.14-.11.23-.23.23h-3.04v2.16h3.65c.14,0,.23.11.23.23v1.01c0,.12-.1.23-.23.23h-5.02c-.14,0-.23-.11-.23-.23v-8.16Z"/>
        <path class="cls-1" d="M114.48,33.99c0-.12.11-.22.23-.22h.31l5.13,5.45h.01v-5.09c0-.12.1-.23.23-.23h1.13c.12,0,.23.11.23.23v8.29c0,.12-.11.22-.23.22h-.3l-5.15-5.66h-.01v5.3c0,.12-.1.23-.23.23h-1.12c-.12,0-.23-.11-.23-.23v-8.29Z"/>
        <path class="cls-1" d="M124.01,34.13c0-.12.1-.23.22-.23h2.92c2.38,0,4.33,1.93,4.33,4.3s-1.95,4.33-4.33,4.33h-2.92c-.12,0-.22-.11-.22-.23v-8.16ZM127,41.02c1.6,0,2.77-1.21,2.77-2.82s-1.17-2.81-2.77-2.81h-1.41v5.63h1.41Z"/>
        <path class="cls-1" d="M133.03,32.01c0-.49.39-.89.89-.89s.89.39.89.89-.39.89-.89.89-.89-.39-.89-.89M133.1,34.13c0-.12.11-.23.23-.23h1.15c.12,0,.23.11.23.23v8.16c0,.12-.11.23-.23.23h-1.15c-.12,0-.23-.11-.23-.23v-8.16Z"/>
        <path class="cls-1" d="M136.45,41.31l.44-.76c.1-.17.31-.17.42-.09.06.04,1.06.76,1.86.76.64,0,1.12-.42,1.12-.95,0-.63-.53-1.06-1.57-1.48-1.16-.47-2.32-1.21-2.32-2.66,0-1.1.81-2.37,2.77-2.37,1.26,0,2.22.64,2.46.83.12.07.16.28.07.41l-.47.7c-.1.15-.28.25-.43.15-.1-.06-1.04-.68-1.71-.68s-1.08.47-1.08.86c0,.58.46.97,1.45,1.38,1.2.48,2.58,1.2,2.58,2.79,0,1.27-1.1,2.44-2.83,2.44-1.55,0-2.46-.73-2.71-.96-.11-.11-.17-.17-.06-.37"/>
        <path class="cls-1" d="M143.64,34.13c0-.12.1-.23.23-.23h1.13c.12,0,.23.11.23.23v6.91h3.14c.14,0,.23.11.23.23v1.01c0,.12-.1.23-.23.23h-4.51c-.14,0-.23-.11-.23-.23v-8.16Z"/>
        <path class="cls-1" d="M149.86,34.13c0-.12.1-.23.23-.23h5.02c.14,0,.23.11.23.23v1.01c0,.12-.1.23-.23.23h-3.65v2.02h3.04c.12,0,.23.11.23.23v1.02c0,.14-.11.23-.23.23h-3.04v2.16h3.65c.14,0,.23.11.23.23v1.01c0,.12-.1.23-.23.23h-5.02c-.14,0-.23-.11-.23-.23v-8.16Z"/>
        <path class="cls-1" d="M157.11,34.13c0-.12.1-.23.23-.23h3.52c1.48,0,2.69,1.18,2.69,2.65,0,1.13-.75,2.06-1.82,2.49l1.69,3.13c.09.16,0,.36-.21.36h-1.29c-.11,0-.17-.06-.2-.11l-1.64-3.27h-1.37v3.14c0,.12-.11.23-.23.23h-1.13c-.14,0-.23-.11-.23-.23v-8.16ZM160.73,37.83c.65,0,1.22-.57,1.22-1.26,0-.65-.57-1.2-1.22-1.2h-2.01v2.45h2.01Z"/>
        <path class="cls-1" d="M165.24,32.01c0-.49.39-.89.89-.89s.89.39.89.89-.39.89-.89.89-.89-.39-.89-.89M165.31,34.13c0-.12.11-.23.23-.23h1.15c.12,0,.23.11.23.23v8.16c0,.12-.11.23-.23.23h-1.15c-.12,0-.23-.11-.23-.23v-8.16Z"/>
        <path class="cls-1" d="M81.97,48.79c2.46,0,4.44,1.98,4.44,4.45s-1.97,4.42-4.44,4.42-4.42-1.96-4.42-4.42,1.96-4.45,4.42-4.45M81.97,56.06c1.55,0,2.83-1.27,2.83-2.82s-1.28-2.85-2.83-2.85-2.82,1.29-2.82,2.85,1.27,2.82,2.82,2.82"/>
        <path class="cls-1" d="M88.02,49.15c0-.12.1-.23.22-.23h2.92c2.38,0,4.33,1.93,4.33,4.3s-1.95,4.33-4.33,4.33h-2.92c-.12,0-.22-.11-.22-.23v-8.16ZM91.02,56.04c1.6,0,2.77-1.21,2.77-2.82s-1.17-2.81-2.77-2.81h-1.41v5.63h1.41Z"/>
        <path class="cls-1" d="M95.92,57.22l3.83-8.29c.04-.07.1-.14.21-.14h.12c.12,0,.17.06.21.14l3.8,8.29c.07.16-.02.32-.21.32h-1.07c-.18,0-.27-.07-.36-.25l-.6-1.33h-3.69l-.6,1.33c-.05.12-.16.25-.36.25h-1.07c-.18,0-.28-.16-.21-.32M101.24,54.59l-1.23-2.71h-.04l-1.21,2.71h2.48Z"/>
        <path class="cls-1" d="M104.71,56.33l.44-.76c.1-.17.31-.17.42-.09.06.04,1.06.76,1.86.76.64,0,1.12-.42,1.12-.95,0-.63-.53-1.06-1.57-1.48-1.16-.47-2.32-1.21-2.32-2.66,0-1.1.81-2.37,2.77-2.37,1.26,0,2.22.64,2.46.83.12.07.16.28.07.41l-.47.7c-.1.15-.28.25-.43.15-.1-.06-1.04-.68-1.71-.68s-1.08.47-1.08.86c0,.58.46.97,1.45,1.38,1.2.48,2.58,1.2,2.58,2.79,0,1.27-1.1,2.44-2.83,2.44-1.55,0-2.46-.73-2.71-.96-.11-.11-.17-.17-.06-.37"/>
        <rect class="cls-1" x="111.89" y="48.91" width="1.61" height="8.63" rx=".23" ry=".23"/>
        <path class="cls-1" d="M77.55,62.05c0-.49.39-.89.89-.89s.89.39.89.89-.39.89-.89.89-.89-.39-.89-.89M77.62,64.17c0-.12.11-.23.23-.23h1.15c.12,0,.23.11.23.23v8.16c0,.12-.11.23-.23.23h-1.15c-.12,0-.23-.11-.23-.23v-8.16Z"/>
        <path class="cls-1" d="M80.97,71.36l.44-.76c.1-.17.31-.17.42-.09.06.04,1.06.76,1.86.76.64,0,1.12-.42,1.12-.95,0-.63-.53-1.06-1.57-1.48-1.16-.47-2.32-1.21-2.32-2.66,0-1.1.81-2.37,2.77-2.37,1.26,0,2.22.64,2.46.83.12.07.16.28.07.41l-.47.7c-.1.15-.28.25-.43.15-.1-.06-1.04-.68-1.71-.68s-1.08.47-1.08.86c0,.58.46.97,1.45,1.38,1.2.48,2.58,1.2,2.58,2.79,0,1.27-1.1,2.44-2.83,2.44-1.55,0-2.46-.73-2.71-.96-.11-.11-.17-.17-.06-.37"/>
        <path class="cls-1" d="M89.31,65.42h-1.89c-.14,0-.23-.11-.23-.23v-1.01c0-.12.1-.23.23-.23h5.39c.14,0,.23.11.23.23v1.01c0,.12-.1.23-.23.23h-1.89v6.91c0,.12-.11.23-.23.23h-1.15c-.12,0-.23-.11-.23-.23v-6.91Z"/>
        <path class="cls-1" d="M92.74,72.24l3.83-8.29c.04-.07.1-.14.21-.14h.12c.12,0,.17.06.21.14l3.8,8.29c.07.16-.02.32-.21.32h-1.07c-.18,0-.27-.07-.36-.25l-.6-1.33h-3.68l-.6,1.33c-.05.12-.16.25-.36.25h-1.07c-.18,0-.28-.16-.21-.32M98.06,69.62l-1.23-2.71h-.04l-1.21,2.71h2.48Z"/>
        <path class="cls-1" d="M102.03,64.04c0-.12.11-.22.23-.22h.31l5.13,5.45h.01v-5.09c0-.12.1-.23.23-.23h1.13c.12,0,.23.11.23.23v8.29c0,.12-.11.22-.23.22h-.3l-5.15-5.66h-.01v5.3c0,.12-.1.23-.23.23h-1.12c-.12,0-.23-.11-.23-.23v-8.29Z"/>
        <path class="cls-1" d="M111.56,64.17c0-.12.1-.23.23-.23h2.82c1.47,0,2.6.99,2.6,2.28,0,.95-.78,1.69-1.36,1.96.65.21,1.6.88,1.6,2.01,0,1.38-1.18,2.38-2.69,2.38h-2.98c-.14,0-.23-.11-.23-.23v-8.16ZM114.47,67.56c.63,0,1.06-.49,1.06-1.11s-.43-1.05-1.06-1.05h-1.32v2.16h1.32ZM114.64,71.11c.62,0,1.11-.48,1.11-1.12s-.62-1.07-1.26-1.07h-1.34v2.19h1.49Z"/>
        <path class="cls-1" d="M119.04,64.17c0-.12.11-.23.23-.23h1.17c.14,0,.23.11.23.23v5.04c0,1.05.71,1.87,1.79,1.87s1.8-.83,1.8-1.86v-5.05c0-.12.1-.23.23-.23h1.17c.12,0,.23.11.23.23v5.13c0,1.87-1.49,3.39-3.44,3.39s-3.43-1.52-3.43-3.39v-5.13Z"/>
        <path class="cls-1" d="M128.02,64.17c0-.12.1-.23.23-.23h1.13c.12,0,.23.11.23.23v6.91h3.14c.14,0,.23.11.23.23v1.01c0,.12-.1.23-.23.23h-4.51c-.14,0-.23-.11-.23-.23v-8.16Z"/>
        <path class="cls-1" d="M136.46,71.36l.44-.76c.1-.17.31-.17.42-.09.06.04,1.06.76,1.86.76.64,0,1.12-.42,1.12-.95,0-.63-.53-1.06-1.57-1.48-1.16-.47-2.32-1.21-2.32-2.66,0-1.1.81-2.37,2.77-2.37,1.26,0,2.22.64,2.46.83.12.07.16.28.07.41l-.47.7c-.1.15-.28.25-.43.15-.1-.06-1.04-.68-1.71-.68s-1.08.47-1.08.86c0,.58.46.97,1.45,1.38,1.2.48,2.58,1.2,2.58,2.79,0,1.26-1.07,2.42-2.77,2.44v.52c.75.1,1.2.58,1.2,1.27s-.58,1.29-1.31,1.29c-.37,0-.73-.18-.94-.43-.1-.11-.07-.25.04-.35l.25-.21c.07-.07.2-.06.26.01.1.11.26.15.37.15.25,0,.43-.21.43-.46,0-.3-.26-.55-.9-.6-.18-.02-.21-.16-.21-.22v-1.04c-1.1-.17-1.76-.7-1.96-.9-.11-.11-.17-.17-.06-.37"/>
        <path class="cls-1" d="M143.54,64.17c0-.12.11-.23.23-.23h1.17c.14,0,.23.11.23.23v5.04c0,1.05.71,1.87,1.79,1.87s1.8-.83,1.8-1.86v-5.05c0-.12.1-.23.23-.23h1.17c.12,0,.23.11.23.23v5.13c0,1.87-1.49,3.39-3.44,3.39s-3.43-1.52-3.43-3.39v-5.13Z"/>
        <path class="cls-1" d="M152.52,64.17c0-.12.1-.23.23-.23h2.82c1.47,0,2.6.99,2.6,2.28,0,.95-.78,1.69-1.36,1.96.65.21,1.6.88,1.6,2.01,0,1.38-1.18,2.38-2.69,2.38h-2.98c-.14,0-.23-.11-.23-.23v-8.16ZM155.43,67.56c.63,0,1.06-.49,1.06-1.11s-.43-1.05-1.06-1.05h-1.32v2.16h1.32ZM155.6,71.11c.62,0,1.11-.48,1.11-1.12s-.62-1.07-1.26-1.07h-1.34v2.19h1.49Z"/>
        <path class="cls-1" d="M160.12,64.17c0-.12.1-.23.23-.23h5.02c.14,0,.23.11.23.23v1.01c0,.12-.1.23-.23.23h-3.65v2.02h3.04c.12,0,.23.11.23.23v1.02c0,.14-.11.23-.23.23h-3.04v2.16h3.65c.14,0,.23.11.23.23v1.01c0,.12-.1.23-.23.23h-5.02c-.14,0-.23-.11-.23-.23v-8.16Z"/>
        <path class="cls-1" d="M166.86,71.36l.44-.76c.1-.17.31-.17.42-.09.06.04,1.06.76,1.86.76.64,0,1.12-.42,1.12-.95,0-.63-.53-1.06-1.57-1.48-1.16-.47-2.32-1.21-2.32-2.66,0-1.1.81-2.37,2.77-2.37,1.26,0,2.22.64,2.46.83.12.07.16.28.07.41l-.47.7c-.1.15-.28.25-.43.15-.1-.06-1.04-.68-1.71-.68s-1.08.47-1.08.86c0,.58.46.97,1.45,1.38,1.2.48,2.58,1.2,2.58,2.79,0,1.27-1.1,2.44-2.83,2.44-1.55,0-2.46-.73-2.71-.96-.11-.11-.17-.17-.06-.37"/>
        <path class="cls-1" d="M173.97,62.05c0-.49.39-.89.89-.89s.89.39.89.89-.39.89-.89.89-.89-.39-.89-.89M174.05,64.17c0-.12.11-.23.23-.23h1.15c.12,0,.23.11.23.23v8.16c0,.12-.11.23-.23.23h-1.15c-.12,0-.23-.11-.23-.23v-8.16Z"/>
      </g>
    </g>
  </g>
</svg>